<?xml version="1.0" encoding="UTF-8" standalone="no"?>
<!-- Created with Inkscape (http://www.inkscape.org/) -->

<svg
   xmlns:dc="http://purl.org/dc/elements/1.1/"
   xmlns:cc="http://creativecommons.org/ns#"
   xmlns:rdf="http://www.w3.org/1999/02/22-rdf-syntax-ns#"
   xmlns:svg="http://www.w3.org/2000/svg"
   xmlns="http://www.w3.org/2000/svg"
   xmlns:sodipodi="http://sodipodi.sourceforge.net/DTD/sodipodi-0.dtd"
   xmlns:inkscape="http://www.inkscape.org/namespaces/inkscape"
   width="160"
   height="160"
   viewBox="0 0 42.333332 42.333332"
   version="1.1"
   id="svg8"
   inkscape:version="0.92.3 (2405546, 2018-03-11)"
   sodipodi:docname="logo.svg">
  <defs
     id="defs2" />
  <sodipodi:namedview
     id="base"
     pagecolor="#ffffff"
     bordercolor="#666666"
     borderopacity="1.0"
     inkscape:pageopacity="0.0"
     inkscape:pageshadow="2"
     inkscape:zoom="1.979899"
     inkscape:cx="13.097453"
     inkscape:cy="81.550258"
     inkscape:document-units="mm"
     inkscape:current-layer="layer1"
     showgrid="false"
     showguides="true"
     inkscape:guide-bbox="true"
     fit-margin-top="0"
     fit-margin-left="0"
     fit-margin-right="0"
     fit-margin-bottom="0"
     inkscape:window-width="1920"
     inkscape:window-height="1137"
     inkscape:window-x="-8"
     inkscape:window-y="130"
     inkscape:window-maximized="1"
     units="px" />
  <metadata
     id="metadata5">
    <rdf:RDF>
      <cc:Work
         rdf:about="">
        <dc:format>image/svg+xml</dc:format>
        <dc:type
           rdf:resource="http://purl.org/dc/dcmitype/StillImage" />
        <dc:title></dc:title>
      </cc:Work>
    </rdf:RDF>
  </metadata>
  <g
     inkscape:label="Layer 1"
     inkscape:groupmode="layer"
     id="layer1"
     transform="translate(-25.702377,-63.663488)">
    <g
       id="g4648"
       transform="matrix(0.31517404,0,0,0.31517404,13.78955,50.501673)">
      <g
         id="text4520"
         style="font-style:normal;font-variant:normal;font-weight:normal;font-stretch:normal;font-size:50.79999924px;line-height:63.5px;font-family:'Viner Hand ITC';-inkscape-font-specification:'Viner Hand ITC';letter-spacing:0px;word-spacing:0px;fill:#000000;fill-opacity:1;stroke:none;stroke-width:0.26458332"
         aria-label="eShop">
        <path
           id="path4625"
           style="font-style:normal;font-variant:normal;font-weight:normal;font-stretch:normal;font-size:50.79999924px;line-height:63.5px;font-family:'Viner Hand ITC';-inkscape-font-specification:'Viner Hand ITC';stroke-width:0.26458332"
           d="m 49.629455,100.53388 0.620117,0.0992 h 0.09922 l -0.09922,0.24805 h 0.198437 l 0.347266,0.34726 1.16582,0.0992 h 1.165821 l 0.669726,0.37207 h 0.248047 l 0.37207,1.26504 -0.520898,0.44648 v 0.47129 l 0.818554,0.81856 -0.09922,2.28203 h -0.347266 l -0.124023,0.44648 h -0.09922 v 0.71934 l 0.471289,0.0992 0.198437,0.24805 -0.297656,0.47128 v 0.34727 l -0.620117,0.29766 -0.446484,0.37207 -1.289844,0.69453 q -0.520898,0.5457 -0.892969,0.81855 l -0.37207,1.01699 -2.182813,0.86817 -2.182812,-0.0496 0.09922,0.5457 h -0.446485 l -0.09922,0.14883 -1.066602,0.22324 -0.09922,-0.37207 -0.37207,0.14883 v 0.22324 l -0.917773,0.34727 -0.347266,1.01699 0.471289,1.26504 v 0.62012 l 0.248047,0.5457 q -0.496094,1.46348 -0.719336,1.53789 l 0.148828,0.44649 -0.248047,0.0992 0.570508,0.24805 v 0.76895 l 0.496094,0.34726 q 1.240234,-0.37207 1.513086,-0.5457 l 0.37207,0.34726 0.09922,-0.0992 q 1.016992,-0.0992 1.612304,-0.24805 l 0.173633,-0.29766 h 0.595313 l 0.471289,-0.0496 0.595312,0.29766 -0.148828,-0.19844 h 0.496094 l 0.620117,-0.5209 0.719336,-0.0496 h -0.148828 l 0.694531,-0.29765 0.198438,0.14883 0.37207,-0.34727 h 0.496094 l 0.471289,-0.47129 q 0.545703,-0.0248 1.761132,-0.64492 v -0.27285 l 0.719336,-0.19844 0.768946,-1.11621 0.818554,0.0992 q 0.42168,0.39687 0.992188,0.47129 l 0.37207,0.34726 -0.570508,1.0666 0.09922,0.66973 -0.79375,0.44649 -0.09922,0.24804 -1.190625,0.14883 -0.644921,0.66973 -0.719336,0.0496 -0.198438,0.5705 -0.967383,-0.0992 -0.297656,0.69453 -0.768945,-0.0992 -0.297656,0.34726 q -0.84336,0.32246 -0.868165,0.37207 l -0.347265,-0.19843 -0.570508,0.5457 h -0.818555 l -0.496093,0.24805 h -0.297657 l -0.37207,0.32246 q -0.644922,0.17363 -1.314648,0.5457 l -0.347266,-0.24805 h -0.719336 l -0.297656,0.24805 -0.272852,-0.0992 -0.347265,0.0992 -0.09922,-0.0992 -0.248047,0.57051 h -0.669726 l -0.545704,0.29766 q -0.272851,0.14882 -1.190625,0.24804 l -0.248046,0.24805 h -0.446485 l -0.669726,0.0992 -0.496094,0.62011 -0.669727,-0.24804 -0.347265,0.44648 -0.272852,-0.0744 q -0.09922,-0.0248 -0.992187,-0.94258 l 0.09922,-0.59531 -0.09922,-0.32246 0.09922,-0.59532 -0.37207,-0.91777 0.148828,-0.71933 -0.248047,-1.11622 0.248047,-0.91777 -0.347265,-1.41387 -0.09922,-0.0992 0.09922,-0.71933 0.818554,-0.29766 v -0.49609 l -0.347265,-0.12402 0.09922,-0.64493 -0.223242,-0.37207 0.124024,-0.59531 0.347265,-0.19844 -0.09922,-0.5705 0.09922,-0.96739 0.198438,-0.0992 0.347265,-1.16582 0.818555,-1.46347 0.719336,-0.27285 0.09922,-0.79375 -0.09922,-0.22325 0.09922,-0.44648 0.446484,-0.24805 0.272852,-0.81855 h -0.620117 v -0.29766 l 0.248046,-0.37207 -0.09922,-0.34726 0.09922,-0.34727 h 0.09922 v -0.81856 l 0.818555,-0.0992 0.347265,-0.71934 1.736329,-1.93477 h 0.347265 q 0.297656,-0.47128 0.768945,-0.79375 l 0.347266,0.0992 q 0.347266,-0.12402 0.818555,-0.81855 h 0.248047 l 0.471289,-0.29766 h 0.198437 l 0.347266,-0.5209 z m -0.595313,4.2168 -0.868164,0.29765 -0.669726,-0.29765 q -0.595313,0.49609 -0.967383,0.69453 -0.07441,0.64492 -0.520899,1.09141 -0.421679,0.44648 -0.595312,0.44648 h -0.446485 l 0.297657,0.5457 q -0.272852,0.4961 -0.719336,1.53789 l -0.396875,-0.0992 -0.148828,0.64493 0.148828,0.91777 0.496094,0.27285 q 0.223242,0.12402 1.240234,0.29766 l 0.79375,-0.5209 1.637109,-0.14883 0.868164,-1.26504 1.165821,-0.96738 0.148828,-1.83555 -0.396875,-0.59531 -0.04961,-0.86816 h -0.570507 z"
           inkscape:connector-curvature="0" />
        <path
           id="path4629"
           style="font-style:normal;font-variant:normal;font-weight:normal;font-stretch:normal;font-size:50.79999924px;line-height:63.5px;font-family:'Viner Hand ITC';-inkscape-font-specification:'Viner Hand ITC';stroke-width:0.26458332"
           d="m 110.45055,82.550483 0.37207,-0.272852 0.5457,0.372071 0.47129,-0.09922 0.34726,0.446484 0.71934,-0.198437 q 0.5209,0 0.79375,0.545703 l 0.91777,1.736328 q 0,1.364258 -0.79375,1.364258 h -0.27285 l -1.11621,1.289843 0.0992,0.248047 -0.24805,-0.148828 q -0.24804,0.545703 -1.01699,0.595313 v 0.198437 q -0.5457,-0.694531 -2.77813,-1.612305 l -0.32246,0.248047 -0.14882,-0.248047 q -0.34727,0.42168 -0.66973,1.26504 -0.24805,0.198437 -0.24805,0.396875 0,0.124023 0.0992,0.32246 -0.32246,0.322461 -0.5457,0.694532 v 0.818554 q -0.14883,0.694532 -0.47129,1.364258 h -0.0992 q -0.34727,0.868164 -0.34727,1.736328 -0.29765,0.09922 -0.29765,0.570508 0,0.248047 0.0496,0.347266 -0.0992,0.595312 -0.32246,1.016992 h -0.14883 q -0.44649,0.892969 -0.44649,0.967383 l -0.0992,-0.148828 v 0.248046 q -0.54571,1.091407 -0.71934,1.934766 l -0.29766,1.513085 v 1.16582 l 0.0992,0.22324 q -0.0992,0.19844 -0.34726,0.44649 l -0.12403,-0.0992 -0.24804,0.5457 v 1.0666 l -0.44649,0.81856 v 1.36426 l -0.19844,0.91777 v 1.0666 l -0.62011,2.6541 -0.0992,1.83555 q -0.19844,0 -0.19844,0.14883 0,0.12402 0.19844,0.19844 l -0.0992,0.81855 q 0.27285,0.5457 0.81855,0.5457 l 0.0992,-0.34726 0.91778,-1.26504 h 0.0992 v -0.22324 q 0.37207,-0.39688 0.89296,-1.26504 0.5209,-0.86817 0.96739,-0.91778 l 0.47129,-0.69453 0.19843,0.0992 q 0.27286,-0.32246 0.34727,-0.57051 l 0.0992,0.0992 0.17363,-0.5457 0.19844,0.0992 0.19844,-0.4961 q 0.0496,-0.17363 0.32246,-0.39687 l 0.64492,-0.57051 1.46347,-0.71933 -0.0992,-0.0992 2.18281,-1.53789 1.0666,-0.54571 q 0.29766,-0.24804 0.66973,-0.37207 l 0.81855,0.47129 0.79375,0.0992 0.27285,0.14883 q 0.0992,0.0496 0.19844,0.29766 0.0992,0.24804 0.0992,0.27285 v 0.5457 l 0.62012,1.26504 -0.17364,1.0666 0.5209,1.01699 0.0992,1.28985 0.34727,1.6123 -0.79375,0.91777 0.0992,0.44649 q 1.36425,0.76894 1.36425,2.18281 l -0.19843,0.81856 0.44648,1.16582 -0.0992,1.16582 0.19844,1.5875 q -0.0992,0.12402 -0.27285,0.29765 -0.14883,0.17364 -0.17364,0.19844 0.4961,0.44649 1.16582,0.76895 0.27286,-0.37207 0.57051,-0.54571 0.29766,-0.17363 0.79375,-0.71933 h 0.47129 l 0.14883,-0.24805 0.24805,-0.0992 v -0.27285 l 0.66972,-0.49609 q 0.29766,-0.14883 0.71934,-0.47129 l 0.84336,-0.64492 q 0.29765,-0.0248 0.64492,-0.37208 0.34727,-0.34726 0.5209,-0.44648 l 0.71933,-0.0496 0.0992,-0.34726 1.31465,0.39687 -0.0992,0.44648 0.0992,0.91778 q -0.76894,0.57051 -0.91777,1.28984 l -0.0992,-0.12402 -0.24805,0.47129 -0.44648,0.24804 -0.0992,0.29766 q -0.64492,0.17363 -1.48828,0.27285 v 0.19844 q -0.81856,0.39687 -1.16582,0.39687 l -0.14883,0.76895 -0.5209,0.29766 q -0.57051,0.52089 -1.31465,0.52089 -0.5457,0.99219 -1.11621,1.017 l -0.71933,0.79375 -0.89297,0.12402 v 0.19844 q -0.27285,0 -1.48828,0.44648 l -0.0992,0.24805 -0.24805,-0.0992 q -0.14883,0.57051 -1.16582,0.57051 -0.42168,0 -0.91777,-0.74414 -0.47129,-0.74414 -0.47129,-0.89297 v -0.19844 q -0.19844,-1.68672 -0.19844,-2.33164 l 0.0496,-0.24805 -0.19844,-0.66972 v -1.26504 l -0.64492,-0.91778 0.0992,-0.81855 -0.27285,-2.90215 0.5209,-1.81074 -1.06661,-1.26504 q -0.5705,-0.64492 -0.5705,-1.83555 h -0.0992 q 0.19844,-0.34726 0.19844,-0.52089 0,-0.64493 -0.89297,-0.74415 l -0.71934,0.34727 h -0.47129 l -0.0992,0.44648 -0.0992,-0.14882 q -0.0744,1.14101 -0.96738,1.26504 v 0.17363 q -0.74414,0.44648 -0.74414,0.89297 l 0.0496,0.32246 q 0,0.14883 -0.0496,0.24804 l -0.37207,0.0992 -0.34727,0.81856 -0.34726,0.24805 q -0.0496,0.76894 -0.91777,1.36425 -0.14883,0.74414 -0.81856,1.16582 -0.37207,1.017 -1.01699,1.63711 l -0.34727,1.36426 0.69453,0.57051 -0.79375,0.81855 h -0.17363 l -0.29765,0.89297 v 0.81856 l -0.24805,0.37207 -0.19844,0.5457 q -0.0496,0.14883 -0.34726,0.42168 l -0.71934,0.64492 -0.272852,-0.14883 -0.198438,0.62012 h -0.248046 q -0.248047,0.5457 -0.917774,0.5457 l -0.09922,0.81856 h -0.446484 l -0.471289,0.5457 -0.694531,-0.0992 q -0.173633,0.27285 -0.471289,0.57051 l -0.446485,-0.66973 q 0.347266,-0.27285 0.347266,-0.64492 0,-0.22324 -0.248047,-0.62012 0.173633,-0.0744 0.198438,-0.27285 0.04961,-0.19843 0.248046,-0.99218 h -0.09922 q 0.198437,-0.34727 0.198437,-0.66973 0,-0.29766 -0.09922,-0.59531 h 0.148829 q 0.09922,-1.41387 0.471289,-2.0836 -0.148829,-0.32246 -0.148829,-0.5209 l 0.148829,-0.76894 v -0.34727 l 0.347265,-1.11621 h 0.09922 v -0.24804 l 0.37207,-1.63711 0.09922,0.14882 -0.09922,-0.79375 0.198438,-0.52089 0.446484,-0.29766 -0.446484,-0.71934 0.446484,-1.71152 v -0.47129 q 0.248047,-0.14883 0.248047,-0.34726 l -0.09922,-0.47129 v -0.0992 h 0.223242 l -0.124023,-1.36426 v -0.34727 l 0.124023,-0.27285 h -0.124023 l 0.124023,-0.89297 q 0.272852,-0.42168 0.396875,-0.99218 0.148829,-0.59532 0.148829,-0.64493 v -0.66972 l 0.446484,-0.59531 q 0.322466,-0.0744 0.322466,-0.32247 0,-0.37207 -0.421685,-1.26503 l 0.471295,-1.06661 v -0.91777 l 0.34726,-1.01699 0.0992,0.12402 0.14883,-0.917772 0.17363,-0.520899 -0.0744,-0.198437 q 0,-0.297656 0.37207,-0.818555 h -0.14883 q 0,-0.198437 0.14883,-0.347265 l -0.14883,-0.09922 q 0.34727,-0.520899 0.34727,-0.719336 V 96.61474 h 0.14883 q 0.0992,-0.620117 0.29765,-0.818554 l 0.37207,-0.09922 v -0.595313 q 0.19844,-0.818554 0.19844,-1.339453 v -0.818554 q 0,-0.297657 0.14883,-0.595313 l 0.24804,-0.09922 v -0.967382 l 0.27286,-0.768946 q 0.39687,-0.471289 0.39687,-1.215429 v -0.297657 l 0.44649,-1.265039 q 0,-0.322461 0.27285,-0.570507 h 0.0992 l 0.5457,-1.63711 q 0.5457,-0.843359 0.71933,-0.992187 1.33946,-0.173633 1.83555,-1.537891 0.42168,0 0.69453,-0.347265 l 0.91778,-0.198438 0.71933,0.09922 0.44649,-0.272852 z"
           inkscape:connector-curvature="0" />
        <path
           id="path4631"
           style="font-style:normal;font-variant:normal;font-weight:normal;font-stretch:normal;font-size:50.79999924px;line-height:63.5px;font-family:'Viner Hand ITC';-inkscape-font-specification:'Viner Hand ITC';stroke-width:0.26458332"
           d="m 140.93551,100.26103 h 1.26504 l 0.81855,0.37207 q 0.29766,1.31465 0.96738,1.31465 0.24805,0 0.24805,-0.4961 0.76894,-0.5705 1.41387,-0.5705 0.39687,0 0.66972,0.27285 0.27285,0.27285 0.29766,0.5457 l 0.19844,2.82774 -0.14883,0.5705 q -0.17363,0.57051 -0.24805,1.21543 -0.0744,0.64492 -0.24804,1.017 -0.14883,0.37207 -0.22325,0.47128 l -2.00918,2.13321 0.24805,1.46347 -0.5209,0.86817 -0.24805,0.79375 -1.56269,1.78594 -0.76895,1.93476 q -0.69453,0.76895 -1.98437,1.21543 l -0.34727,1.41387 -1.43867,0.91777 -1.26504,1.53789 -2.28203,1.71153 -0.66972,0.17363 -2.57969,2.08359 -0.71934,-0.66972 q -0.84336,-0.64493 -1.19062,-1.11622 -0.32246,-0.44648 -0.32246,-0.81855 0,-0.19844 0.14882,-0.34727 l 0.24805,-2.1332 -1.0666,-1.73633 q -0.14883,-0.22324 -0.14883,-0.39687 0,-0.29766 0.29766,-0.66973 v -0.0992 l 0.42168,-0.39687 -0.47129,-1.24024 0.14883,-2.57968 v -0.66973 l 0.37207,-0.19844 q -0.27286,-0.49609 -0.27286,-1.16582 0,-0.37207 0.32247,-0.76894 h 0.44648 l -0.39687,-0.34727 0.29765,-0.5457 0.5209,-1.33946 0.74414,-0.91777 0.22324,-0.69453 0.74414,-1.01699 q 0.0992,-0.34727 0.19844,-0.62012 v 0.0496 q 0,-0.39688 0.17363,-0.64492 0.19844,-0.24805 0.59532,-0.91778 l 1.21543,-0.62011 0.0992,-0.34727 q 1.24024,-0.99219 2.45567,-1.21543 l 1.66191,-0.32246 1.11621,-0.64492 0.81856,0.0496 z m -1.53789,4.44004 -0.0992,0.19844 q -0.44649,0 -0.64492,0.0248 -0.19844,0 -0.57051,0.32246 l -0.71934,-0.29765 -2.72851,1.51308 q -1.017,0.57051 -1.73633,1.88516 -0.71934,1.28984 -0.71934,2.1332 0,0.5209 0.22324,0.91777 h 0.0992 q 0,0.57051 0.29766,2.0836 l -0.62012,0.96738 0.47129,0.69453 -0.24805,0.86817 q 0,0.17363 0.19844,0.62011 0.19844,0.42168 0.17363,0.64492 0,0.19844 0.42168,0.86817 l -0.0496,0.5209 q 0,1.36426 0.66973,1.36426 0.5457,0 1.46348,-0.76895 0.22324,-0.64492 0.86816,-0.69453 l 0.24805,-0.76895 q 0.42168,-0.0496 0.42168,-0.39687 v -0.17363 q 0.12402,-0.0744 0.27285,-0.14883 0.14883,-0.0744 0.17363,-0.0992 0.29766,-0.96738 1.16582,-2.18281 l 0.17364,0.0992 -0.0744,-0.19843 0.76895,-0.86817 0.96738,-3.1998 0.14883,-0.29766 0.32246,-0.0992 0.0248,-0.5705 v -0.44649 q 0.0248,-0.14883 0.37207,-0.91777 l -1.53789,-1.21543 1.19063,-0.47129 -0.17363,-1.36426 0.22324,-0.49609 -0.32246,0.14883 z"
           inkscape:connector-curvature="0" />
        <path
           id="path4633"
           style="font-style:normal;font-variant:normal;font-weight:normal;font-stretch:normal;font-size:50.79999924px;line-height:63.5px;font-family:'Viner Hand ITC';-inkscape-font-specification:'Viner Hand ITC';stroke-width:0.26458332"
           d="m 160.82887,107.23115 q 0.64492,-0.89297 1.83554,-1.36426 v -0.14883 l 1.16582,-0.81855 0.0992,0.14882 v -0.24804 l 0.19844,-0.0992 0.17363,0.0992 1.71153,-1.28985 0.0992,0.12403 0.5705,-0.57051 0.69453,-0.0992 0.12403,-0.24805 0.89297,-0.37207 h 1.43867 l 0.64492,-0.19843 q 1.28984,0.81855 1.28984,1.73632 l 0.0992,0.0992 0.24805,1.61231 h -0.0992 q -0.22324,0.47129 -0.34726,0.81855 -0.0992,0.32246 -0.57051,1.26504 0.27285,0.47129 0.44648,0.66973 l -0.44648,0.24804 0.44648,0.71934 -0.24804,2.28203 v 1.01699 l -0.44649,1.06661 v 0.81855 l -0.57051,1.36426 q 0.0992,0.0992 0.0992,0.19844 0,0.22324 -0.34726,0.71933 h 0.0992 l -1.01699,2.53008 -1.6123,1.73633 -0.22324,0.57051 -0.79375,0.24804 q -0.22325,0.29766 -0.47129,0.57051 -0.24805,0.27285 -0.64493,0.62012 -0.37207,0.32246 -0.69453,0.37207 l -0.84336,0.14883 -1.26503,1.38906 -1.16583,0.37207 q -0.24804,0.0744 -0.52089,0.34726 l -0.64493,0.69453 -2.18281,0.29766 -2.08359,1.63711 h -1.28985 l -0.5457,1.83555 -0.34726,1.51308 -0.0992,1.16582 q -0.71934,1.76114 -0.81856,2.0836 l -0.47129,1.5875 -0.34726,0.79375 -0.0992,1.16582 q -0.5209,0.81855 -0.81856,1.71152 -0.29765,0.89297 -0.62011,1.5875 -0.29766,0.71934 -0.29766,1.09141 l -0.69453,0.89297 -0.47129,1.63711 -1.0666,1.46347 -0.91777,2.6541 -0.91778,0.91778 -0.29765,1.46347 q 0,0.0248 -0.29766,0.4961 -0.29766,0.47129 -0.59531,0.66972 -0.32246,0.19844 -0.76895,0.19844 l -0.42168,-0.0496 -1.11621,-1.36426 q 0.64492,-0.17363 1.16582,-1.51308 0.5457,-0.39688 0.62012,-0.91778 0.22324,-0.71933 0.5457,-0.71933 h 0.0992 q 0.37207,-0.27285 0.37207,-0.44649 v -0.0992 l -0.19844,-0.27286 q 0.4961,-0.91777 0.59532,-0.96738 l 0.0992,-0.49609 q 0.0496,-0.19844 0.81856,-1.11621 0.17363,-1.63711 0.66973,-2.30684 0.47129,-0.66973 0.69453,-1.51309 h 0.19843 l 0.37208,-1.26503 q 0.59531,-0.5209 0.59531,-1.017 v -0.71933 l 0.22324,0.12402 -0.22324,-1.01699 q 0,-0.32246 0.22324,-0.71934 l 0.24805,-0.0992 q 0.42168,-1.56269 0.5457,-2.6541 l 0.57051,-0.59531 -0.0992,-0.66973 q 0,-0.0248 0.12402,-0.44648 0.14883,-0.39688 0.22324,-1.53789 h 0.19844 q 0.37207,-0.96738 0.37207,-1.46348 0,-0.64492 0.0496,-0.79375 0.0496,-0.14883 0.64492,-0.94258 l 0.22325,-1.88515 0.34726,-1.61231 0.24805,-5.03535 0.34726,-0.69453 -0.59531,-1.19062 v -1.11622 l -0.0992,-0.96738 0.19844,-1.36426 -0.57051,-2.53007 v -1.017 l -0.5457,-0.14882 q -0.0744,-0.0248 -1.36426,1.16582 l -0.71933,-0.0992 -0.91778,1.26504 q -0.14883,0.0992 -0.34726,0.0992 -0.37207,0 -0.44649,-0.49609 -0.0496,-0.5209 -0.27285,-1.33945 0.37207,-0.14883 0.44648,-0.44649 l 0.27286,0.0992 q 0.22324,-1.01699 1.16582,-1.63711 l 1.93476,-1.26504 0.0992,-0.34726 h 0.59531 l 0.57051,-0.66973 q 0.5457,0 0.71934,-0.5457 l 0.0992,0.0992 v -0.81856 q 0.69453,-0.47129 0.69453,-1.26504 h 0.0992 l 1.16582,-1.16582 h 0.22324 q 0.79375,0 1.0666,-0.5705 l 0.5457,-0.0992 q 0.91778,0 1.017,0.19843 0.5457,0.84336 0.96738,1.26504 l -0.34727,0.71934 0.34727,0.81855 -1.26504,3.91914 q 0.34726,0.34727 0.44648,0.34727 0.22325,0 0.22325,-0.24805 l 0.91777,-1.21543 q 0.49609,-0.62011 0.89297,-0.62011 z m 5.2834,6.00273 q -0.0496,-0.32246 -0.27286,-1.09141 -0.22324,-0.79375 -0.22324,-1.26503 l 0.14883,-0.89297 v -1.11621 q 0.14883,-0.47129 0.14883,-0.86817 l -0.0496,-0.42168 q 0,-0.59531 -0.5457,-0.59531 l -0.22325,0.0992 -0.69453,0.96738 q -0.17363,0.0744 -0.34726,0.24805 -0.17364,0.14883 -1.06661,0.62012 -0.86816,0.44648 -1.43867,0.89296 -0.5705,0.42168 -0.96738,0.96739 l -2.00918,2.92695 q -0.27285,0.44648 -0.57051,0.64492 l -0.86816,0.59531 -0.0992,0.57051 h -0.14883 q 0,0.5209 0.24805,0.91778 l -0.57051,1.16582 -0.24805,2.62929 -1.01699,0.71934 q -0.0496,0.24805 -0.0496,0.66973 0,0.62011 0.24805,1.0666 -0.19844,0.42168 -0.19844,0.89297 0,0.5705 0.44649,0.5705 0.5705,0 1.5875,-1.26504 0.49609,0.34727 0.91777,0.34727 0.27285,0 0.44648,-0.17363 0.19844,-0.19844 0.96739,-0.64492 l -0.0992,-0.0992 h 0.29765 l -0.0992,-0.0992 0.81855,-0.24805 v -0.0992 h 0.24805 l 0.47129,-0.37207 v -0.0992 h 0.19843 v -0.0992 l 0.71934,-0.14882 q 0.22324,-0.91778 1.36426,-1.36426 0.12402,-0.19844 0.44648,-0.37207 l 0.47129,-0.89297 q 0.5209,-1.61231 1.0666,-2.55488 l -0.14883,-0.81856 0.44649,-0.79375 -0.0992,-0.66972 z"
           inkscape:connector-curvature="0" />
      </g>
      <path
         inkscape:connector-curvature="0"
         style="fill:#ff6600;fill-opacity:1;fill-rule:evenodd;stroke:none;stroke-width:0.10070778;stroke-linecap:round;stroke-linejoin:round;stroke-miterlimit:10;stroke-dasharray:0.40283053, 0.30212365;stroke-dashoffset:0;stroke-opacity:1"
         d="m 58.264758,65.544571 v 51.924999 c 0.0485,0.0103 0.0955,0.0239 0.14572,0.0305 l 0.37208,0.34726 -0.5178,0.9679 v 0.45476 l 0.0465,0.31367 -0.0465,0.0263 v 23.97683 h 35.54718 V 65.544569 Z m 27.38127,20.999233 0.59531,0.471289 0.91778,-0.09922 1.01699,1.165821 v 0.446484 l 0.62012,0.570508 0.34726,1.16582 -0.14883,0.719336 h 0.14883 l -0.34726,3.894336 -0.62012,0.669727 -1.01699,0.496093 -1.16582,1.488279 -1.01699,0.24805 -0.91778,0.91777 -1.26504,-0.62011 -0.34726,-0.917778 0.5457,-0.644922 -0.34727,-0.818554 0.59532,-1.165821 c -0.0992,-0.694531 -0.21498,-1.083138 -0.34727,-1.16582 l -1.26504,0.148828 -0.91777,-0.347265 -1.51309,0.347265 0.14883,0.570508 -1.0666,0.892969 h -0.47129 l -4.81211,3.00137 -0.81855,0.81855 -0.62012,0.0992 -0.19844,0.47129 -1.26504,0.34727 0.0992,0.24804 -0.91777,0.347273 -2.08359,1.5875 -0.34727,0.34727 0.49609,0.32246 c 0.14883,0.0992 0.37207,0.38034 0.66973,0.84336 l 0.57051,-0.34727 0.34726,0.44648 0.91778,-0.34726 0.69453,0.34726 1.28984,-0.0992 3.99356,0.0992 0.37207,0.47129 h 1.0666 l 0.81855,0.59532 1.46348,-0.4961 h 0.5457 l 0.5209,0.34727 h 0.66973 l 0.44648,0.37207 h 0.71934 l 0.34726,0.34726 0.39688,0.0744 c 0.11575,0.0165 0.35553,0.18191 0.71933,0.4961 h 0.44649 c 0.28112,-0.16537 0.60358,-0.28939 0.96738,-0.37207 l 0.66973,0.62011 0.34726,0.64493 1.98438,1.28984 1.93476,1.71152 -0.44648,0.81856 0.79375,0.71933 -0.5457,1.71153 -0.14883,1.63711 -0.5209,0.84336 c -0.16536,0.28112 -0.3638,0.76067 -0.59531,1.43867 l -1.0666,0.57051 -0.22325,0.59531 -4.2664,2.90215 -0.79375,-0.14883 -0.0992,0.44648 -4.63848,1.53789 -0.69453,0.54571 h -1.38906 l -0.34727,0.34726 h -0.71933 l -0.29766,0.37207 -0.71934,-0.24804 -1.98437,0.69453 -0.0992,-0.0992 -0.91777,0.0992 -1.61231,0.37207 -2.75332,-0.27285 -1.26504,0.37207 -1.6123,-0.37207 -0.32246,-0.0248 -0.32246,-0.0248 -0.27286,-0.0248 c -0.0661,-0.0165 -0.23151,-0.10749 -0.49609,-0.27286 l -0.66973,-0.44648 -0.91777,-1.28984 0.0992,-1.71153 0.44648,-0.0992 0.47129,-0.47129 0.69453,-0.34726 c 0.28112,-0.34727 0.66973,-0.68627 1.16583,-1.017 h 2.6541 v 0.81856 l -0.0992,0.29766 0.34726,0.34726 -0.81855,0.76895 c -0.0992,0.0992 -0.24805,0.3886 -0.44649,0.86816 l 0.19844,0.44649 1.26504,0.5705 0.37207,-0.5705 0.91777,-0.19844 1.26504,0.29766 1.51309,0.14882 0.91777,-0.44648 h 0.81856 l 1.11621,-0.24805 0.44648,-0.24804 h 0.91778 l 0.62011,-0.12403 2.13321,-0.84336 0.69453,-0.14883 0.5457,-0.32246 c 0.14883,-0.0992 0.61185,-0.21497 1.38906,-0.34726 l 0.37207,-0.34727 0.34727,0.0992 2.08359,-1.16582 0.54571,-1.14101 1.0666,-0.29766 -0.0496,-0.64492 0.42168,-0.57051 -0.19844,-0.19844 0.5457,-1.41386 -0.0992,-0.57051 0.29766,-0.81856 -0.59531,-1.16582 0.24804,-0.91777 -0.62011,-1.36426 -0.59532,-0.24804 c -0.23151,-0.51263 -0.50436,-0.90124 -0.81855,-1.16582 l -1.26504,0.24804 -0.39688,-0.91777 c -0.0496,-0.0992 -0.25631,-0.30593 -0.62011,-0.62012 -0.38034,-0.0662 -0.80202,-0.21497 -1.26504,-0.44648 l -0.81856,0.81855 -0.34726,-0.37207 -1.28985,-0.29765 -0.69453,-0.71934 -0.37207,0.37207 -0.64492,-0.24805 -0.47129,0.44649 -1.0666,-0.44649 -0.44648,0.69453 -1.11622,-0.5457 -0.14882,0.5457 h -0.91777 l -0.19844,-0.34726 -1.0666,-0.19844 -0.91778,0.44648 -1.0914,-0.12402 c -0.11576,-0.0165 -0.41341,-0.17363 -0.89297,-0.47129 l -0.57051,0.24805 -0.44648,-0.24805 -0.0992,0.44649 -1.41387,0.14882 -0.12402,-0.24804 -0.54571,0.0992 -0.91777,-0.81856 -0.24805,-0.62012 c -0.0661,-0.19843 -0.25631,-0.44648 -0.5705,-0.74414 0.39687,-0.31419 0.73587,-0.62011 1.01699,-0.91777 h 0.24804 l 0.47129,-0.81855 h 0.44649 l 0.57051,-0.64493 1.26504,-0.81855 1.26503,-1.165823 0.71934,-0.47129 0.91777,-0.34727 0.81856,-0.81855 0.69453,-0.34727 0.76894,-0.669724 1.16583,-0.694531 1.0666,-1.16582 1.21543,-0.669727 c 0.19843,-0.198437 0.47129,-0.355534 0.81855,-0.471289 l 0.14883,-0.347265 1.48828,-1.066602 h 0.44648 l 0.62012,-0.768945 c 0.51263,-0.264584 0.93431,-0.529167 1.26504,-0.79375 l 0.0992,-0.372071 0.5457,-0.248046 0.0992,-0.198438 c 0.76068,-0.562239 1.38907,-1.07487 1.88516,-1.537891 h 0.19844 v -0.198437 h 0.37207 l 0.0992,-0.347266 1.0666,-0.347265 z"
         id="path4640" />
    </g>
  </g>
</svg>
